999
"DXF R12 Output" (www.mydxf.blogspot.com)
 0 
SECTION
 2 
HEADER
 9 
$ACADVER
 1 
AC1009
 9 
$EXTMIN
 10 
 0 
 20 
 0 
 9 
$EXTMAX
 10 
 8.5 
 20 
 11 
 0 
ENDSEC
 0 
SECTION
 2 
ENTITIES
0
POLYLINE
8
Cut Layer
62
10
70
0
10
0.000000
20
0.000000
66
1
0
VERTEX
8
Cut Layer
10
11.422179
20
52.651431
70
0
0
VERTEX
8
Cut Layer
10
281.420928
20
52.651431
70
0
0
SEQEND
8
Cut Layer
0
POLYLINE
8
Cut Layer
62
10
70
0
10
0.000000
20
0.000000
66
1
0
VERTEX
8
Cut Layer
10
281.420928
20
52.651431
70
0
0
VERTEX
8
Cut Layer
10
281.420928
20
252.651044
70
0
0
SEQEND
8
Cut Layer
0
POLYLINE
8
Cut Layer
62
10
70
0
10
0.000000
20
0.000000
66
1
0
VERTEX
8
Cut Layer
10
281.420928
20
252.651044
70
0
0
VERTEX
8
Cut Layer
10
11.422179
20
252.651044
70
0
0
SEQEND
8
Cut Layer
0
POLYLINE
8
Cut Layer
62
10
70
0
10
0.000000
20
0.000000
66
1
0
VERTEX
8
Cut Layer
10
11.422179
20
252.651044
70
0
0
VERTEX
8
Cut Layer
10
10.814696
20
52.652225
70
0
0
SEQEND
8
Cut Layer
0
POLYLINE
8
Cut Layer
62
10
70
0
10
0.000000
20
0.000000
66
1
0
VERTEX
8
Cut Layer
10
11.422179
20
252.651044
70
0
0
VERTEX
8
Cut Layer
10
26.422183
20
252.651044
70
0
0
SEQEND
8
Cut Layer
0
POLYLINE
8
Cut Layer
62
10
70
0
10
0.000000
20
0.000000
66
1
0
VERTEX
8
Cut Layer
10
26.422183
20
252.651044
70
0
0
VERTEX
8
Cut Layer
10
26.422183
20
112.651183
70
0
0
SEQEND
8
Cut Layer
0
POLYLINE
8
Cut Layer
62
10
70
0
10
0.000000
20
0.000000
66
1
0
VERTEX
8
Cut Layer
10
26.422183
20
112.651183
70
0
0
VERTEX
8
Cut Layer
10
31.422273
20
112.651183
70
0
0
SEQEND
8
Cut Layer
0
POLYLINE
8
Cut Layer
62
10
70
0
10
0.000000
20
0.000000
66
1
0
VERTEX
8
Cut Layer
10
31.422273
20
112.651183
70
0
0
VERTEX
8
Cut Layer
10
31.422273
20
252.651044
70
0
0
SEQEND
8
Cut Layer
0
POLYLINE
8
Cut Layer
62
10
70
0
10
0.000000
20
0.000000
66
1
0
VERTEX
8
Cut Layer
10
31.422273
20
252.651044
70
0
0
VERTEX
8
Cut Layer
10
151.422040
20
252.651044
70
0
0
SEQEND
8
Cut Layer
0
POLYLINE
8
Cut Layer
62
10
70
0
10
0.000000
20
0.000000
66
1
0
VERTEX
8
Cut Layer
10
151.422040
20
252.651044
70
0
0
VERTEX
8
Cut Layer
10
151.422040
20
112.651183
70
0
0
SEQEND
8
Cut Layer
0
POLYLINE
8
Cut Layer
62
10
70
0
10
0.000000
20
0.000000
66
1
0
VERTEX
8
Cut Layer
10
151.422040
20
112.651183
70
0
0
VERTEX
8
Cut Layer
10
156.422130
20
112.651183
70
0
0
SEQEND
8
Cut Layer
0
POLYLINE
8
Cut Layer
62
10
70
0
10
0.000000
20
0.000000
66
1
0
VERTEX
8
Cut Layer
10
156.422130
20
112.651183
70
0
0
VERTEX
8
Cut Layer
10
156.422130
20
252.651044
70
0
0
SEQEND
8
Cut Layer
 0 
ENDSEC
 0 
EOF